<?xml version="1.0" encoding="UTF-8" standalone="no"?>
<!-- Created with Inkscape (http://www.inkscape.org/) -->

<svg
   width="66.922424mm"
   height="75.105446mm"
   viewBox="0 0 66.922424 75.105446"
   version="1.1"
   id="svg1"
   xml:space="preserve"
   xmlns="http://www.w3.org/2000/svg"
   xmlns:svg="http://www.w3.org/2000/svg"><defs
     id="defs1" /><g
     id="layer1"
     transform="translate(19.515929,94.238172)"><path
       id="path27-9"
       style="fill:#ffffff;fill-opacity:1;fill-rule:nonzero;stroke:none;stroke-width:0.0352777"
       d="m 24.696714,-94.233255 c -4.96886,0.157691 -8.89456,4.083982 -8.74675,8.75192 0.0378,1.18286 0.33474,2.326837 0.88366,3.399276 l 0.30489,0.594796 -0.36897,0.564823 c -0.81455,1.246006 -1.22046,2.674779 -1.1746,4.12998 0.01,0.313267 0.0452,0.623448 0.0982,0.929659 1.0368,-1.376533 2.18836,-2.527818 2.94401,-3.138826 0.3041,-0.24483 0.59746,-0.477213 0.88108,-0.702283 2.81305,-2.229905 4.22375,-3.348637 3.97857,-7.097241 -0.0444,-0.667806 0.49681,-1.245911 1.20871,-1.290361 0.72814,-0.04798 1.32536,0.463038 1.3684,1.131198 0.32666,4.967449 -1.86359,6.704692 -4.89325,9.107454 -0.27799,0.221191 -0.56767,0.449475 -0.86506,0.689364 -1.13382,0.914396 -2.57288,2.567127 -3.49539,4.154268 l 0.0155,0.02842 -0.26768,0.546737 c -0.52,1.061859 -0.76533,2.183946 -0.72864,3.333646 0.014,0.445656 0.0808,0.882889 0.1788,1.314132 h 2.10478 c 0.53756,0 1.11566,0.0871 1.69499,0.347782 0.60339,0.265476 1.07721,0.65893 1.44745,1.085722 l 0.002,0.0021 0.92966,1.064535 c 0.0729,-0.521761 0.2315,-1.085198 0.76946,-1.623157 0.70453,-0.70453 1.60647,-0.876949 2.2717,-0.876949 h 3.69331 c 0.63465,0 1.52537,0.18747 2.22829,0.90072 0.13645,0.135212 0.19083,0.288745 0.28887,0.435116 0.10174,-0.153758 0.12928,-0.310659 0.2775,-0.458887 0.70453,-0.70453 1.60647,-0.876949 2.2717,-0.876949 h 11.4236 c 0.12489,0 0.26584,0.01444 0.40721,0.03152 -0.59032,-2.777325 -2.48662,-4.847123 -5.92264,-5.549016 0.98071,-3.989203 -1.54181,-7.706149 -3.88814,-8.978263 -0.96132,2.779526 -2.50985,4.305687 -4.16719,5.510775 0.60395,0.8195 2.04548,3.011264 2.07688,5.352645 0.008,0.662866 -0.55148,1.209931 -1.25315,1.231449 -0.008,7.94e-4 -0.0162,0.001 -0.0243,0.0015 -0.71261,0.01093 -1.29773,-0.524511 -1.3069,-1.193725 -0.0205,-1.648175 -1.14168,-3.35037 -1.59783,-3.974435 -2.09161,1.380064 -4.02836,2.863846 -5.26273,6.607866 -0.16792,0.507998 -0.65922,0.839179 -1.19579,0.855761 -0.13828,0.0049 -0.27989,-0.01021 -0.42065,-0.05219 -0.68086,-0.194733 -1.06191,-0.873478 -0.85059,-1.514119 1.59913,-4.84821 4.34871,-6.642427 6.77581,-8.225338 2.06057,-1.344431 3.84909,-2.519153 4.83898,-5.550566 l 0.19947,-1.00924 c 0.1203,-0.607131 0.17185,-1.216477 0.15245,-1.811259 -0.14746,-4.66794 -4.3139,-8.338071 -9.28522,-8.18038 z m -18.3570201,0.04134 c -2.93722,0.09313 -5.13786,1.31148 -6.36447003,4.151684 -2.97319997,-0.788456 -6.45100997,1.79485 -7.22746997,4.362008 -0.80432,2.659583 -0.31418,5.843366 3.05201,9.872782 0.49918,0.597604 1.0311,1.133659 1.58285,1.594735 0.55104,0.458963 0.59961,1.252038 0.10749,1.769918 -0.25506,0.269518 -0.60357,0.412461 -0.95705,0.423746 -0.32985,0.01024 -0.6635,-0.09404 -0.92914,-0.315226 -0.66993,-0.558798 -1.31203,-1.204045 -1.90893,-1.917712 -2.40628,-2.880775 -3.26611,-6.125119 -3.56774,-8.319389 -5.0828099,3.474497 -5.7367599,9.868583 -3.4214899,13.384713 -0.30482,0.458781 -0.51067,0.928908 -0.6625,1.401465 0.63195,0.0072 1.49961,0.197573 2.18902,0.897102 0.33943,0.336353 0.58424,0.708891 0.71262,1.084172 0.12193,-0.369063 0.31376,-0.749398 0.67179,-1.107426 0.7045299,-0.70453 1.6064699,-0.876949 2.2716999,-0.876949 h 3.8163 c 0.63364,0 1.52224,0.188323 2.22467,0.898653 0.0401,0.0396 0.0492,0.08585 0.0858,0.126607 0.0428,-0.04872 0.042,-0.100351 0.0899,-0.148311 0.70453,-0.70453 1.60646997,-0.876949 2.27169997,-0.876949 H 2.2675939 c 0.0979,-1.407785 0.19514,-2.626961 0.37103,-4.270024 0.2988,-2.798576 0.66959,-6.283261 0.38913,-7.521504 -0.86465,-3.811048 -2.82936003,-3.748121 -3.56878003,-3.724838 -0.73871997,0.02363 -1.35373997,-0.519499 -1.37561997,-1.211295 -0.0222,-0.693206 0.55803,-1.273278 1.29603997,-1.296562 1.84220003,-0.05786 5.10630003,0.603345 6.26163003,5.699911 0.36795,1.62136 0.006,5.014116 -0.34364,8.294584 -0.16888,1.578999 -0.29899,2.779056 -0.35554,4.029728 h 5.9231601 c 0.61353,0 1.46478,0.179556 2.15594,0.835608 -0.28657,-0.885163 -0.72498,-1.724675 -1.34411,-2.474268 l -0.65319,-0.790649 0.678,-0.775663 c 1.25623,-1.437212 1.91581,-3.242435 1.85725,-5.083928 -0.049,-1.546221 -0.5881,-3.021643 -1.55753,-4.265889 l -0.59996,-0.768946 0.632,-0.751892 c 1.19944,-1.422044 1.82758,-3.198293 1.77043,-5.004862 -0.14075,-4.447809 -3.21072,-7.459542 -7.4641401,-7.325134 z m -24.1520099,28.642696 c -0.31187,0 -0.54164,0.07397 -0.68937,0.221692 -0.13131,0.13131 -0.19688,0.352696 -0.19688,0.664559 v 15.954585 c 0,0.31186 0.0656,0.54163 0.19688,0.68936 0.14773,0.13131 0.3775,0.19689 0.68937,0.19689 h 3.8163 c 0.31186,0 0.53325,-0.0656 0.66456,-0.19689 0.14772,-0.14773 0.22169,-0.3775 0.22169,-0.68936 v -5.46582 h 4.1118899 v 5.46582 c 0,0.31186 0.0656,0.54164 0.19689,0.68936 0.14773,0.13131 0.3775,0.19689 0.68937,0.19689 h 3.8163 c 0.31186,0 0.53325,-0.0656 0.66456,-0.19689 0.14772,-0.14772 0.22169,-0.3775 0.22169,-0.68936 v -15.954584 c 0,-0.311863 -0.074,-0.533249 -0.22169,-0.664559 -0.13131,-0.147725 -0.3527,-0.221692 -0.66456,-0.221692 h -3.8163 c -0.31187,0 -0.54164,0.07397 -0.68937,0.221692 -0.13131,0.13131 -0.19689,0.352696 -0.19689,0.664559 v 5.342826 h -4.1118899 v -5.342826 c 0,-0.311863 -0.074,-0.533249 -0.22169,-0.664559 -0.13131,-0.147725 -0.3527,-0.221692 -0.66456,-0.221692 z m 18.18957987,0 c -0.31186,0 -0.54164,0.07397 -0.68936,0.221692 -0.13131,0.13131 -0.1974,0.352696 -0.1974,0.664559 v 2.979146 c 0,0.311863 0.0661,0.541638 0.1974,0.689364 0.14772,0.13131 0.3775,0.197403 0.68936,0.197403 H 2.8143239 v 8.272362 H 0.37726387 c -0.31186,0 -0.54164,0.074 -0.68936,0.22169 -0.13131,0.13131 -0.1974,0.3527 -0.1974,0.66456 v 2.93006 c 0,0.31186 0.0661,0.54163 0.1974,0.68936 0.14772,0.13131 0.3775,0.19689 0.68936,0.19689 H 10.865514 c 0.31187,0 0.53325,-0.0656 0.66456,-0.19689 0.14773,-0.14773 0.22169,-0.3775 0.22169,-0.68936 v -2.93006 c 0,-0.31186 -0.074,-0.53325 -0.22169,-0.66456 -0.13131,-0.14772 -0.35269,-0.22169 -0.66456,-0.22169 H 8.4775439 v -8.272362 h 2.3879701 c 0.31187,0 0.53325,-0.06609 0.66456,-0.197403 0.14773,-0.147726 0.22169,-0.377501 0.22169,-0.689364 v -2.979146 c 0,-0.311863 -0.074,-0.533249 -0.22169,-0.664559 -0.13131,-0.147725 -0.35269,-0.221692 -0.66456,-0.221692 z m 15.18564013,0 c -0.31186,0 -0.54164,0.07397 -0.68936,0.221692 -0.13132,0.13131 -0.19741,0.352696 -0.19741,0.664559 v 15.954585 c 0,0.31186 0.0661,0.54163 0.19741,0.68936 0.14772,0.13131 0.3775,0.19689 0.68936,0.19689 h 3.6928 c 0.31186,0 0.53376,-0.0656 0.66507,-0.19689 0.14773,-0.14773 0.22118,-0.3775 0.22118,-0.68936 v -8.125089 l 4.21059,5.096849 v 3.02824 c 0,0.31186 0.0656,0.54163 0.19689,0.68936 0.14773,0.13131 0.3775,0.19689 0.68936,0.19689 h 3.6928 c 0.31187,0 0.53377,-0.0656 0.66508,-0.19689 0.14772,-0.14773 0.22169,-0.3775 0.22169,-0.68936 v -15.954584 c 0,-0.311863 -0.074,-0.533249 -0.22169,-0.664559 -0.13131,-0.147725 -0.35321,-0.221692 -0.66508,-0.221692 h -3.6928 c -0.31186,0 -0.54163,0.07397 -0.68936,0.221692 -0.13131,0.13131 -0.19689,0.352696 -0.19689,0.664559 v 5.244641 l -4.77645,-5.465817 c -0.21338,-0.246207 -0.43528,-0.418797 -0.66507,-0.517281 -0.21338,-0.09848 -0.47569,-0.147794 -0.78755,-0.147794 z m 18.43557,0 c -0.31187,0 -0.54164,0.07397 -0.68937,0.221692 -0.13131,0.13131 -0.19688,0.352696 -0.19688,0.664559 v 15.954585 c 0,0.31186 0.0656,0.54163 0.19688,0.68936 0.14773,0.13131 0.3775,0.19689 0.68937,0.19689 h 11.42411 c 0.31186,0 0.53325,-0.0656 0.66456,-0.19689 0.14772,-0.14773 0.22169,-0.3775 0.22169,-0.68936 v -2.88096 c 0,-0.31187 -0.074,-0.53325 -0.22169,-0.66456 -0.13131,-0.14773 -0.3527,-0.2217 -0.66456,-0.2217 h -6.79546 v -2.117179 h 4.80075 c 0.31187,0 0.53376,-0.06558 0.66507,-0.196887 0.14772,-0.147725 0.2217,-0.377501 0.2217,-0.689364 v -2.634464 c 0,-0.311863 -0.074,-0.533766 -0.2217,-0.665076 -0.13131,-0.147725 -0.3532,-0.221175 -0.66507,-0.221175 h -4.80075 v -1.896009 h 6.79546 c 0.31186,0 0.53325,-0.06558 0.66456,-0.196887 0.14772,-0.147724 0.22169,-0.3775 0.22169,-0.689363 v -2.880961 c 0,-0.311863 -0.074,-0.533249 -0.22169,-0.664559 -0.13131,-0.147725 -0.3527,-0.221692 -0.66456,-0.221692 z m -35.1684001,6.577376 v 4.642611 c 0.53831997,-0.277426 1.09101997,-0.433566 1.54667997,-0.433566 h 0.19895 v -3.796667 h -0.19895 c -0.45121,0 -0.99996,-0.1363 -1.54667997,-0.412378 z m 47.7221601,0.925008 v 2.567285 c 0,0.274621 -0.058,0.601246 -0.14211,0.926042 0.21679,0.06119 0.43232,0.15017 0.64285,0.273368 0.0222,-0.316842 0.0349,-0.635003 0.0248,-0.954463 -0.0308,-0.969451 -0.21012,-1.914195 -0.52555,-2.812232 z m -35.09347,0.421163 c -0.22139,0.07264 -0.47713,0.130472 -0.74414,0.174666 v 2.688208 h 0.15038 c 0.10517,0 0.21801,0.01096 0.33434,0.02842 l 0.007,-0.03669 c 0.19262,-0.945088 0.27264,-1.904578 0.25218,-2.854606 z m 10.77712,9.847459 c -0.11994,0.46066 -0.31987,0.92913 -0.73226,1.34152 -0.34942,0.34943 -0.72116,0.55348 -1.0821,0.67645 0.1087,0.0808 0.22711,0.17148 0.31471,0.23357 0.57079,0.40464 0.83879,1.06379 0.48989,1.64693 -0.23072,0.3877 -0.64913,0.61034 -1.08727,0.62374 -0.22331,0.007 -0.45276,-0.0396 -0.66301,-0.14935 -0.77243,-0.3995 -1.76167,-1.14432 -2.6541,-2.17971 h -0.95033 c -0.14541,0.66553 -0.22123,1.34528 -0.19947,2.03243 0.061,1.92652 0.75671,3.75677 2.01331,5.29064 l 0.37155,0.45578 c 1.07844,1.20121 2.59969,2.37668 3.7822,3.28507 0.56233,0.43251 1.06551,0.82102 1.45004,1.14981 3.60292,3.0815 2.89854,6.842114 2.02365,8.401034 -0.22648,0.4004 -0.65752,0.6346 -1.10484,0.64906 -0.21767,0.007 -0.43753,-0.0388 -0.64285,-0.14005 -0.62653,-0.30938 -0.8674,-1.03689 -0.54002,-1.6278 0.16228,-0.30197 1.46652,-2.965734 -1.47847,-5.485974 -0.35735,-0.3055 -0.82596,-0.66481 -1.34772,-1.06557 -0.89923,-0.69144 -1.97655,-1.52623 -2.97139,-2.44275 -0.0504,0.35066 -0.0819,0.70267 -0.0703,1.06144 0.0293,0.93204 0.27034,1.83202 0.7152,2.67374 l 0.30179,0.57257 -0.33435,0.55811 c -0.70801,1.18639 -1.05933,2.52572 -1.01699,3.865914 0.13017,4.11197 3.79828,7.34199 8.17625,7.2037 3.06387,-0.0974 5.74824,-1.79809 7.00835,-4.44004 l 0.22221,-0.46871 0.51418,-0.17776 c 1.43792,-0.49531 2.64844,-1.43818 3.46336,-2.635504 -1.10914,-0.12135 -2.15324,-0.46449 -3.08457,-1.03353 -1.75082,-1.07032 -2.87207,-2.80511 -3.07526,-4.76302 -0.18592,-1.79598 0.36792,-3.80549 0.97151,-5.3697 -1.1056,0.36301 -2.24208,0.54975 -3.27783,0.58291 -1.1042,0.0353 -2.09206,-0.10027 -2.80397,-0.37155 -0.66003,-0.24977 -0.97677,-0.95693 -0.70796,-1.57923 0.27023,-0.62053 1.02248,-0.9195 1.68465,-0.66973 1.4418,0.54645 5.99727,0.0553 7.56078,-2.70836 0.62696,-1.11928 1.06762,-2.02458 1.34307,-2.80293 h -0.81959 c -0.62597,0 -1.44389,-0.11086 -2.17609,-0.76171 a 2.2382237,2.2382237 0 0 1 -0.18552,-0.18552 c -0.0986,-0.11087 -0.11384,-0.22773 -0.18914,-0.34158 -0.098,0.1453 -0.13369,0.30319 -0.26768,0.43718 -0.75772,0.75772 -1.62196,0.85163 -2.24793,0.85163 h -3.69331 c -0.62597,0 -1.44389,-0.11086 -2.1761,-0.76171 a 2.2382237,2.2382237 0 0 1 -0.18551,-0.18552 c -0.36187,-0.4071 -0.53887,-0.83351 -0.64079,-1.24592 z m -33.28893,0.20309 c -0.13166,0.39271 -0.34646,0.78985 -0.69504,1.13843 -0.3901,0.3901 -0.80762,0.60079 -1.20717,0.71675 2.12207,1.55898 4.5666799,2.76213 7.0972499,3.48713 2.65253,0.76094 4.56605,3.41844 4.59145,6.18774 0.004,0.48401 -0.0615,1.21046 -0.35605,2.02468 1.04738997,0.19649 2.28004997,0.55412 3.51089,1.12138 -0.30268,-1.899 -0.0638,-3.48949 -0.0465,-3.59461 0.1076,-0.68544 0.79227,-1.15772 1.51722,-1.06247 0.72884,0.0984 1.23274,0.73362 1.12655,1.418 -0.006,0.0328 -0.61109,4.02525 1.15032,5.89215 0.93557,0.99129 1.86971,2.63678 2.13888,4.463804 0.10125,0.68546 -0.40918,1.32097 -1.14049,1.41904 -0.0487,0.005 -0.0971,0.0105 -0.1447,0.0119 -0.6731,0.0215 -1.26697,-0.43589 -1.36116,-1.079 -0.79021,-5.351974 -6.28074,-6.094804 -8.22172,-6.289544 -0.87735,0.89183 -2.16202,1.74133 -4.05608,2.3735 -0.13406,0.0459 -0.26954,0.068 -0.40359,0.0724 -0.56621,0.0183 -1.10228,-0.3044 -1.30018,-0.83251 -0.24519,-0.65193 0.1206,-1.36983 0.81804,-1.603 2.65782,-0.8883 4.1128,-2.41727 4.09587,-4.30569 -0.0141,-1.67392 -1.22818,-3.35816 -2.76417,-3.83335 -4.1853899,-1.29477 -7.5157199,-3.22021 -9.9699399,-5.7366 h -1.13946 c -0.44364,0 -0.98382,-0.0656 -1.52135,-0.3297 -1.31377,6.84251 4.78875,9.76046 8.84338,9.28109 0.7228399,-0.0744 1.3990299,0.40178 1.4882799,1.08934 0.0875,0.68862 -0.435,1.31471 -1.1673699,1.40043 -0.36301,0.0423 -0.71691,0.0683 -1.06298,0.0796 -1.53882,0.0487 -2.90422,-0.19826 -4.08037,-0.58808 -1.05164,4.65489 3.71095,12.416334 12.4111299,9.224764 1.08937,6.10198 10.08525,8.92431 15.2714201,3.12642 5.10221,-5.704404 1.56167,-13.889664 -3.2018801,-15.893084 -1.35712,-0.57079 -2.66381,-1.36731 -3.80752,-2.3766 -2.04268,-1.80065 -2.82783,-3.5485 -3.19618,-5.01417 H 0.37676387 c -0.62597,0 -1.44336997,-0.11085 -2.17557997,-0.76171 a 2.2382237,2.2382237 0 0 1 -0.18552,-0.18551 c -0.002,-0.002 -5.7e-4,-0.004 -0.002,-0.006 -0.0291,0.0319 -0.0314,0.0701 -0.0625,0.10128 -0.75771,0.75772 -1.6204,0.85163 -2.24637,0.85163 h -3.8163 c -0.62597,0 -1.44338,-0.11086 -2.1755799,-0.76171 a 2.2382237,2.2382237 0 0 1 -0.18552,-0.18552 c -0.30076,-0.33835 -0.46771,-0.69524 -0.58033,-1.04283 z m 24.24038,1.01751 c -0.0342,0.0381 -0.0373,0.0838 -0.0744,0.12092 -0.75772,0.75772 -1.62196,0.85163 -2.24792,0.85163 H 4.9449539 c 0.34515,0.98436 0.96965,2.05386 2.24844,3.1812 0.89712,0.79198 2.04649,1.3834 3.2628501,2.00711 0.60396,0.31045 1.23441,0.63476 1.85777,1.00201 0.81327,-1.72778 1.50234,-4.52026 1.62936,-6.56084 -0.18799,-0.10157 -0.37536,-0.22967 -0.55707,-0.39119 a 2.2382237,2.2382237 0 0 1 -0.18552,-0.18552 c -0.007,-0.008 -0.006,-0.0171 -0.0134,-0.0253 z m 33.70803,0.67024 c -0.50804,0.24484 -1.00926,0.29625 -1.41955,0.29973 -0.62823,0.65615 -1.15218,1.14458 -1.27693,1.25625 -0.24059,0.2166 -0.54607,0.3305 -0.85369,0.34003 -0.35278,0.0113 -0.70818,-0.11231 -0.971,-0.36949 -0.34449,-0.3366 -0.42464,-0.8094 -0.27544,-1.22421 h -4.59972 c -0.45732,1.74859 -1.53464,3.6498 -2.97036,6.02961 -0.009,0.0159 -2.19818,3.86663 -1.90996,6.64404 0.12524,1.22166 0.80982,2.33021 1.91719,2.97191 6.8804,3.988294 15.00109,-6.68604 12.35946,-15.94787 z" /></g></svg>
